<svg width="273" height="260" viewBox="0 0 273 260" fill="none" xmlns="http://www.w3.org/2000/svg">
<path d="M70.5626 35.5733L105.636 50.1405C103.141 45.2848 105.168 35.5733 133.226 35.5733C168.299 35.5733 203.84 27.6276 203.84 50.1405C152.867 85.455 62.6128 107.527 133.226 115.031C203.84 122.535 239.38 35.5733 243.121 115.031C246.863 194.488 317.476 218.767 225.351 213.029C171.997 209.705 -0.614921 140.505 7.89897 174.183C17.7194 213.029 109.844 228.037 90.2035 213.029C70.5626 198.02 121.535 273.505 70.5626 257.172C19.59 240.839 -15.483 185.218 7.89897 142.841C31.281 100.464 90.2035 105.761 90.2035 124.301C90.2035 142.841 144.917 95.1665 90.2035 81.9236C35.4896 68.6806 27.5397 52.3477 27.5397 35.5733C27.5397 18.7989 4.15775 -6.80406 27.5397 2.46599C46.2453 9.88203 64.0156 27.6276 70.5626 35.5733Z" stroke="white"/>
</svg>
